# xmcd
#
# Track frame offsets: 
#        182
#        17530
#        29710
#        45472
#        63485
#        76705
#        92387
#        109405
#        126470
#        136545
#        150877
#
# Disc length: 2132 seconds
#
# Revision: 6
# Processed by: cddbd v1.5.2PL0 Copyright (c) Steve Scherf et al.
# Submitted via: ExactAudioCopy v0.99pb5
#
DISCID=7c08520b
DTITLE=C.W. McCall - The Best Of C.W. McCall
DYEAR=1997
DGENRE=Country
TTITLE0=Convoy
TTITLE1=Jackson Hole
TTITLE2=Four Wheel Cowboy
TTITLE3=Wolf Creek Pass
TTITLE4=Old Home Filler-Up An' Keep On A-Truckin' Cafe
TTITLE5=The Gallopin' Goose
TTITLE6=Audubon
TTITLE7=There Won't Be No Country Music (There Won't Be No Rock 'N' Ro
TTITLE7=ll)
TTITLE8=Long Lonesome Road
TTITLE9=Green River
TTITLE10=Black Bear Road
EXTD=
EXTT0=
EXTT1=
EXTT2=
EXTT3=
EXTT4=
EXTT5=
EXTT6=
EXTT7=
EXTT8=
EXTT9=
EXTT10=
PLAYORDER=
